<?xml version="1.0" standalone="no"?>
<!DOCTYPE svg PUBLIC "-//W3C//DTD SVG 20010904//EN"
 "http://www.w3.org/TR/2001/REC-SVG-20010904/DTD/svg10.dtd">
<svg version="1.0" xmlns="http://www.w3.org/2000/svg"
 className="h-12 w-12" viewBox="0 0 512.000000 512.000000"
 preserveAspectRatio="xMidYMid meet">

<g transform="translate(0.000000,512.000000) scale(0.100000,-0.100000)"
fill="#000000" stroke="none">
<path d="M2435 4942 c-61 -22 -2200 -1206 -2264 -1253 -58 -44 -115 -119 -143
-189 -15 -41 -22 -85 -26 -172 l-4 -118 2562 0 2562 0 -4 118 c-4 87 -11 131
-26 172 -28 70 -84 145 -144 190 -68 50 -2235 1246 -2283 1259 -61 17 -173 13
-230 -7z m241 -670 c27 -10 204 -103 392 -207 354 -196 374 -211 342 -250 -18
-22 -1681 -23 -1700 -1 -31 38 -11 56 200 173 385 215 483 267 534 285 65 22
167 22 232 0z"/>
<path d="M706 2998 c-51 -14 -121 -84 -135 -134 -6 -22 -11 -85 -11 -141 l0
-103 85 0 85 0 2 -702 3 -703 393 -3 392 -2 0 705 0 705 86 0 87 0 -5 115 c-7
144 -28 194 -103 240 l-48 30 -396 2 c-252 1 -410 -2 -435 -9z"/>
<path d="M2156 2996 c-49 -18 -94 -60 -117 -111 -15 -31 -19 -64 -19 -152 l0
-113 80 0 80 0 2 -702 3 -703 393 -3 392 -2 0 705 0 705 86 0 86 0 -4 128 c-3
122 -5 131 -31 169 -15 22 -46 50 -70 64 l-42 24 -400 2 c-322 2 -408 0 -439
-11z"/>
<path d="M3655 3005 c-5 -2 -22 -6 -37 -9 -39 -9 -98 -64 -119 -111 -14 -31
-19 -65 -19 -152 l0 -113 85 0 85 0 2 -702 3 -703 385 0 385 0 3 703 2 702 85
0 85 0 0 110 c0 121 -12 165 -58 213 -60 63 -50 62 -482 64 -217 1 -399 0
-405 -2z"/>
<path d="M727 983 c-4 -3 -7 -66 -7 -140 l0 -133 -160 0 -160 0 0 -135 0 -135
-125 0 -125 0 0 -140 0 -140 2425 0 2425 0 0 140 0 140 -120 0 -120 0 0 135 0
135 -165 0 -165 0 0 140 0 140 -1848 0 c-1017 0 -1852 -3 -1855 -7z"/>
</g>
</svg>
